# xmcd
#
# Track frame offsets:
#	150
#	13150
#	25677
#	38212
#	50950
#	62370
#	73980
#	86502
#	98117
#	109987
#	121987
#	134112
#	147312
#	159485
#
# Disc length: 2289 seconds
#
# Revision: 1
# Processed by: cddbd v1.5.1PL0 Copyright (c) Steve Scherf et al.
# Submitted via: audiograbber 1.83.01
#
DISCID=cc08ef0e
DTITLE=Roy Acuff - The Essential Roy Acuff
DYEAR=1900
DGENRE=Classic Country
TTITLE0=Great speckle Bird
TTITLE1=The Precious Jewel
TTITLE2=Wreck On The Highway
TTITLE3=Night Train To Memphis
TTITLE4=Fireball Mail
TTITLE5=Low and Lonely
TTITLE6=Pins And Needles (In My Heart)
TTITLE7=Wait For The Light To Shine
TTITLE8=Wabash Cannonball
TTITLE9=Freight Train Blues
TTITLE10=Blue Eyes Crying In The Rain
TTITLE11=Tennessee Waltz
TTITLE12=This World Can't Stand Long
TTITLE13=I Saw The Light
EXTD=
EXTT0=
EXTT1=
EXTT2=
EXTT3=
EXTT4=
EXTT5=
EXTT6=
EXTT7=
EXTT8=
EXTT9=
EXTT10=
EXTT11=
EXTT12=
EXTT13=
PLAYORDER=
